<svg id="Layer_1" data-name="Layer 1" xmlns="http://www.w3.org/2000/svg" width="309" height="100" viewBox="0 0 309 100"><defs><style>.cls-1,.cls-2{fill:#fff;}.cls-2{fill-rule:evenodd;}</style></defs><title>cini_logo_beli_no_responsive</title><rect class="cls-1" x="97.06" y="79.51" width="38" height="6.73"/><path class="cls-2" d="M85.28,86.3H16a33.66,33.66,0,0,1-6.06-6.73H85.28Z"/><path class="cls-2" d="M26.05,92.47H84.1c-11.7,5.42-30.76,13.82-58,0"/><rect class="cls-1" x="147.78" y="79.41" width="35.65" height="6.73"/><rect class="cls-1" x="271" y="79.51" width="38" height="6.73"/><rect class="cls-1" x="97.06" y="92.31" width="38" height="6.73"/><rect class="cls-1" x="147.78" y="92.2" width="35.65" height="6.73"/><rect class="cls-1" x="271" y="92.31" width="38" height="6.73"/><rect class="cls-1" x="97.06" y="2.28" width="38" height="45"/><rect class="cls-1" x="223.02" y="2.46" width="35.56" height="45"/><polygon class="cls-2" points="221.8 47.45 148 47.45 148 2.46 180.9 2.46 221.8 47.45"/><path class="cls-2" d="M290,6.7a15.16,15.16,0,1,1-15.2,15.16A15.21,15.21,0,0,1,290,6.7M309,47.28H271v-45h38Z"/><rect class="cls-1" x="97.06" y="53.49" width="38" height="6.73"/><path class="cls-2" d="M37.05,60.34H.71C.48,57.88.24,56.45,0,53.6H35.15a35.05,35.05,0,0,0,1.9,6.74"/><path class="cls-2" d="M52.87,73.4H5.62a27.59,27.59,0,0,1-3.09-6.73H41c2.61,3.42,6.41,5.45,11.87,6.73"/><path class="cls-2" d="M71.16,73.41H85.31V68.18H82.48c-4,2.7-5.9,3.94-11.32,5.23"/><rect class="cls-1" x="147.78" y="53.39" width="35.65" height="6.73"/><polygon class="cls-2" points="258.54 60.23 191.44 60.23 185.15 53.49 258.54 53.49 258.54 60.23"/><polygon class="cls-2" points="258.54 86.21 216.6 86.26 210.31 79.51 258.54 79.51 258.54 86.21"/><polygon class="cls-2" points="258.5 73.24 203.98 73.24 197.69 66.5 258.5 66.5 258.5 73.24"/><polygon class="cls-2" points="258.59 99.04 229.23 99.04 222.94 92.31 258.59 92.31 258.59 99.04"/><rect class="cls-1" x="271" y="53.49" width="38" height="6.73"/><rect class="cls-1" x="97.06" y="66.56" width="38" height="6.73"/><rect class="cls-1" x="147.78" y="66.45" width="35.65" height="6.73"/><rect class="cls-1" x="271" y="66.56" width="38" height="6.73"/><path class="cls-2" d="M.33,47.5A53.84,53.84,0,0,1,4.12,31.79a45.72,45.72,0,0,1,13.3-18.2,53.33,53.33,0,0,1,19-10.47,60.65,60.65,0,0,1,23.51-3c6.89.5,19.47,4.24,25.17,8V33H82.25c.24,0-.23-.25-.23-.25-2.85-4.24-14-7.23-19.95-7.23A34.36,34.36,0,0,0,44.49,31,24.75,24.75,0,0,0,35.23,47.5H.33"/><path class="cls-2" d="M285.52,20.23h5A7.48,7.48,0,0,0,293,19.9a2.61,2.61,0,0,0,1.37-1,2.86,2.86,0,0,0,.47-1.57,2.6,2.6,0,0,0-.91-2.05,4.25,4.25,0,0,0-2.86-.8h-5.57ZM283.2,30V12.49H291a10.27,10.27,0,0,1,3.57.48,3.85,3.85,0,0,1,2,1.66,5,5,0,0,1,.73,2.65,4.38,4.38,0,0,1-1.21,3.14,6.12,6.12,0,0,1-3.75,1.63,6.07,6.07,0,0,1,1.41.88,12.14,12.14,0,0,1,1.93,2.33L298.7,30h-2.93l-2.33-3.65c-.68-1.05-1.24-1.85-1.68-2.41a5.41,5.41,0,0,0-1.18-1.18,3.38,3.38,0,0,0-1.06-.46,6.56,6.56,0,0,0-1.3-.09h-2.7V30ZM290,9.85a12.05,12.05,0,1,1-12.09,12A12.09,12.09,0,0,1,290,9.85Z"/></svg>